<?xml version="1.0" standalone="no"?>
<!DOCTYPE svg PUBLIC "-//W3C//DTD SVG 20010904//EN"
 "http://www.w3.org/TR/2001/REC-SVG-20010904/DTD/svg10.dtd">
<svg version="1.0" xmlns="http://www.w3.org/2000/svg"
 width="770.000000pt" height="350.000000pt" viewBox="0 0 770.000000 350.000000"
 preserveAspectRatio="xMidYMid meet">

<g transform="translate(0.000000,350.000000) scale(0.100000,-0.100000)"
fill="#000000" stroke="none">
<path d="M0 1750 l0 -1750 3850 0 3850 0 0 1750 0 1750 -3850 0 -3850 0 0
-1750z m3080 580 l0 -140 315 0 315 0 0 140 0 140 85 0 85 0 0 -340 0 -340
-85 0 -85 0 0 160 0 160 -315 0 -315 0 0 -160 0 -160 -85 0 -85 0 0 340 0 340
85 0 85 0 0 -140z m1200 26 l0 -114 63 26 c45 18 86 27 150 30 245 13 407 -89
407 -254 0 -154 -130 -250 -357 -261 -85 -5 -112 -2 -172 16 -38 12 -73 26
-76 31 -11 18 -25 10 -25 -15 0 -24 -2 -25 -75 -25 l-75 0 0 340 0 340 80 0
80 0 0 -114z"/>
<path d="M4402 2212 c-63 -23 -107 -62 -123 -110 -16 -48 -7 -137 18 -170 32
-42 104 -74 180 -79 111 -8 192 25 241 97 20 30 23 44 20 102 -4 81 -24 112
-92 147 -64 33 -171 39 -244 13z"/>
</g>
</svg>
